<?xml version="1.0" standalone="no"?>
<!DOCTYPE svg PUBLIC "-//W3C//DTD SVG 20010904//EN"
 "http://www.w3.org/TR/2001/REC-SVG-20010904/DTD/svg10.dtd">
<svg version="1.0" xmlns="http://www.w3.org/2000/svg"
 width="512.000000pt" height="512.000000pt" viewBox="0 0 512.000000 512.000000"
 preserveAspectRatio="xMidYMid meet">
<metadata>
Created by potrace 1.11, written by Peter Selinger 2001-2013
</metadata>
<g transform="translate(0.000000,512.000000) scale(0.100000,-0.100000)"
fill="#000000" stroke="none">
<path d="M2330 5110 c-782 -78 -1469 -488 -1902 -1135 -200 -300 -338 -658
-400 -1038 -31 -190 -31 -564 0 -754 46 -283 120 -514 243 -762 248 -501 649
-902 1150 -1150 248 -123 479 -197 762 -243 190 -31 564 -31 754 0 283 46 514
120 762 243 667 331 1160 941 1341 1661 59 231 73 357 73 628 0 271 -14 397
-73 628 -154 611 -536 1150 -1065 1504 -299 200 -663 340 -1033 399 -145 22
-475 33 -612 19z m1808 -1423 l222 -222 -1130 -1130 -1130 -1130 -670 670
-670 670 225 225 225 225 445 -445 445 -445 903 903 c496 496 904 902 907 902
3 0 105 -100 228 -223z"/>
</g>
</svg>
